<?xml version="1.0" encoding="UTF-8"?>
<svg id="root" width="280mm" height="147mm" font-family="monospace" font-size="2px" version="1.1" viewBox="-4 0 280 147" xmlns="http://www.w3.org/2000/svg" xmlns:xlink="http://www.w3.org/1999/xlink">
 <defs>
  <g id="led-body" fill="#eee">
   <rect width="2.6" height="1.2" fill="#c6c6c6"/>
   <rect x=".6" y="-.1" width="1.35" height="1.4" stroke="#aaa" stroke-width=".05"/>
  </g>
  <pattern id="pins" width="2.54" height="2.54" patternUnits="userSpaceOnUse">
   <rect width="2.54" height="2.54" fill="#333"/>
   <rect x="1.079" y=".896" width=".762" height=".762" fill="#191919"/>
   <path transform="translate(1.079 1.658) rotate(180)" d="m0 0v0.762l0.433 0.433c0.046-0.046 0.074-0.109 0.074-0.179v-1.27c0-0.07-0.028-0.133-0.074-0.179z" opacity=".25"/>
   <path transform="translate(1.841 1.658) rotate(90)" d="m0 0v0.762l0.433 0.433c0.046-0.046 0.074-0.109 0.074-0.179v-1.27c0-0.07-0.028-0.133-0.074-0.179z" fill="#fff" opacity=".3"/>
   <path transform="translate(1.841 .896)" d="m0 0v0.762l0.433 0.433c0.046-0.046 0.074-0.109 0.074-0.179v-1.27c0-0.07-0.028-0.133-0.074-0.179z" fill="#fff" opacity=".15"/>
   <path transform="translate(1.079 .896) rotate(-90)" d="m0 0v0.762l0.433 0.433c0.046-0.046 0.074-0.109 0.074-0.179v-1.27c0-0.07-0.028-0.133-0.074-0.179z" opacity=".35"/>
  </pattern>
  <pattern id="pin-male" width="2.54" height="4.80" patternUnits="userSpaceOnUse">
   <rect width="2.12" height="4.8" rx=".3" ry=".3" fill="#565656"/>
   <ellipse cx="1" cy="1.13" rx=".5" ry=".5" fill="#aaa"/>
   <ellipse cx="1" cy="3.67" rx=".5" ry=".5" fill="#aaa"/>
  </pattern>
  <pattern id="mcu-leads" width="2.54" height="0.508" patternUnits="userSpaceOnUse">
   <path d="m0.254 0c-0.14 0-0.254 0.114-0.254 0.254v0.253h1.523v-0.253c0-0.14-0.114-0.254-0.254-0.254z" fill="#ddd"/>
  </pattern>
 </defs>
 <!-- PCB -->
 <!-- USB Connector -->
 <!-- Power jack -->
 <!-- Pin Headers -->
 <!-- MCU -->
 <!-- Programming Headers -->
 <!-- LEDs -->
 <!-- Pin Labels -->
 <!-- Logo -->
 <rect x="-4" width="280" height="147" fill="#0a0303" stroke-width=".26458" style="paint-order:stroke markers fill"/>
 <g transform="matrix(2.2296 0 0 2.2296 62.396 14.039)">
  <path d="m0.999 0a1 1 0 0 0-0.999 0.999v51.34a1 1 0 0 0 0.999 0.999h64.04a1 1 0 0 0 0.999-0.999v-1.54l2.539-2.539v-32.766l-2.539-2.539v-11.43l-1.524-1.523zm14.078 0.835h0.325l0.212 0.041 0.105 0.021 0.3 0.124 0.27 0.18 0.229 0.229 0.18 0.27 0.017 0.042 0.097 0.234 0.01 0.023 0.05 0.252 0.013 0.066v0.325l-0.063 0.318-0.04 0.097-0.083 0.202v1e-3l-0.18 0.27-0.229 0.229-0.27 0.18-0.3 0.124-0.106 0.02-0.212 0.042h-0.325l-0.212-0.042-0.106-0.02-0.3-0.124-0.27-0.18-0.229-0.229-0.18-0.27v-1e-3l-0.083-0.202-0.04-0.097-0.063-0.318v-0.325l0.013-0.066 0.05-0.252 0.01-0.023 0.097-0.234 0.017-0.042 0.18-0.27 0.229-0.229 0.27-0.18 0.3-0.124 0.105-0.021zm50.799 15.239h0.325l0.212 0.042 0.105 0.021 0.3 0.124 0.27 0.18 0.229 0.229 0.18 0.27 0.014 0.035 0.11 0.264 0.01 0.051 0.053 0.267v0.325l-0.03 0.152-0.033 0.166-0.037 0.089-0.079 0.191v0.02l-0.18 0.27-0.229 0.229-0.27 0.18-0.071 0.029-0.228 0.094-0.318 0.063h-0.325l-0.318-0.063-0.228-0.094-0.071-0.029-0.27-0.18-0.229-0.229-0.18-0.27v-0.02l-0.079-0.191-0.036-0.089-0.033-0.166-0.03-0.152v-0.325l0.053-0.267 0.01-0.051 0.109-0.264 0.014-0.035 0.18-0.27 0.229-0.229 0.27-0.18 0.3-0.124 0.105-0.021zm0 27.94h0.325l0.18 0.036 0.138 0.027 0.212 0.087 0.087 0.036 0.27 0.18 0.229 0.229 0.18 0.27 0.124 0.3 0.063 0.319v0.325l-0.063 0.318-0.124 0.3-0.18 0.27-0.229 0.229-0.27 0.18-0.3 0.124-0.318 0.063h-0.325l-0.212-0.042-0.105-0.021-0.3-0.124-0.27-0.18-0.229-0.229-0.18-0.27-0.124-0.3-0.063-0.318v-0.325l0.063-0.319 0.124-0.3 0.18-0.27 0.229-0.229 0.27-0.18 0.087-0.036 0.212-0.087 0.137-0.027zm-52.07 5.08h0.325l0.212 0.041 0.106 0.021 0.3 0.124 0.27 0.18 0.229 0.229 0.121 0.182 0.058 0.087 0.114 0.275 0.01 0.023 0.063 0.318v0.325l-0.035 0.179-0.027 0.139-0.01 0.023-0.114 0.275-0.18 0.27-0.229 0.229-0.27 0.18-0.3 0.124-0.106 0.02-0.212 0.042h-0.325l-0.212-0.042-0.105-0.02-0.3-0.124-0.27-0.18-0.229-0.229-0.18-0.27-0.114-0.275-0.01-0.023-0.027-0.139-0.036-0.179v-0.325l0.063-0.318 0.01-0.023 0.114-0.275 0.058-0.087 0.121-0.182 0.229-0.229 0.27-0.18 0.3-0.124 0.105-0.021z" fill="#2b6b99"/>
  <path d="m0.999 0 63.515 2e-3 1.524 1.523-1e-6 11.43 2.539 2.539v32.766l-2.539 2.539-65.039-50.799" fill="#1c3c54" opacity=".35"/>
  <g fill="#666" stroke="#b3b2b2" stroke-width=".01">
   <rect x="-.05" y="9.72" width="11" height="11.93" rx=".2" ry=".2" fill="#666" opacity=".24"/>
   <rect x="-4" y="9.37" width="14.46" height="11.85"/>
   <rect x="-4" y="9.61" width="14.05" height="11.37"/>
   <rect x="-4" y="9.71" width="13.95" height="11.17"/>
  </g>
  <g fill="#333" stroke-width=".254">
   <path d="m-2.072 40.914c-0.279 0-0.507 0.204-0.507 0.454v8.435c0 0.279 0.228 0.507 0.507 0.507h1.722c0.279 0 0.507-0.228 0.507-0.507v-8.435c0-0.249-0.228-0.454-0.507-0.454z"/>
   <path d="m-2.58 48.784v1.019c0 0.279 0.228 0.508 0.508 0.508h1.722c0.279 0 0.508-0.228 0.508-0.508v-1.019z" opacity=".3"/>
   <path d="m11.334 43.327c0.139 0 0.254 0.114 0.254 0.254v4.064c0 0.139-0.114 0.254-0.254 0.254"/>
   <path d="m11.334 42.438c0-0.558-0.457-1.016-1.016-1.016h-10.16v8.382h10.16c0.558 0 1.016-0.457 1.016-1.016z"/>
   <path d="m10.064 49.804h-9.906v-8.382h1.88c-1.107 0-1.363 1.825-1.363 3.826 0 1.765 1.147 3.496 3.014 3.496h6.374z" opacity=".3"/>
   <rect x="10.064" y="41.422" width=".254" height="8.382" opacity=".2"/>
   <path d="m10.318 48.744v1.059c0.558 0 1.016-0.457 1.016-1.016v-0.364c0 0.313-1.016 0.32-1.016 0.32z" opacity=".3"/>
  </g>
  <g transform="translate(17.497,1.27)">
   <rect width="25.78" height="2.54" fill="url(#pins)"/>
  </g>
  <g transform="translate(44.421,1.27)">
   <rect width="20.7" height="2.54" fill="url(#pins)"/>
  </g>
  <g transform="translate(26.641,49.53)">
   <rect width="20.7" height="2.54" fill="url(#pins)"/>
  </g>
  <g transform="translate(49.501,49.53)">
   <rect width="15.62" height="2.54" fill="url(#pins)"/>
  </g>
  <path d="m64.932 41.627h-36.72c-0.209 0-0.379-0.17-0.379-0.379v-8.545c0-0.209 0.17-0.379 0.379-0.379h36.72c0.209 0 0.379 0.17 0.379 0.379v8.545c0 0.209-0.169 0.379-0.379 0.379z" fill="#292c2d"/>
  <path d="m65.019 40.397c0 0.279-0.228 0.508-0.508 0.508h-35.879c-0.279 0-0.507 0.025-0.507-0.254v-6.338c0-0.279 0.228-0.508 0.507-0.508h35.879c0.279 0 0.508 0.228 0.508 0.508z" opacity=".3"/>
  <path d="m65.019 40.016c0 0.279-0.228 0.508-0.508 0.508h-35.879c-0.279 0-0.507 0.448-0.507-0.508v-6.084c0-0.279 0.228-0.508 0.507-0.508h35.879c0.279 0 0.508 0.228 0.508 0.508z" fill="#3c4042"/>
  <rect transform="translate(29.205,32.778)" width="35.56" height=".508" fill="url(#mcu-leads)"/>
  <rect transform="matrix(1,0,0,-1,29.205,41.159)" width="35.56" height=".508" fill="url(#mcu-leads)"/>
  <circle cx="33.269" cy="36.847" r="1.016" fill="#252728"/>
  <circle cx="59.939" cy="36.847" r="1.016" fill="#252728"/>
  <g transform="translate(14.1,4.4)">
   <rect width="7" height="4.8" fill="url(#pin-male)"/>
  </g>
  <g transform="rotate(-90,45.1,-17.9)">
   <rect width="7" height="4.8" fill="url(#pin-male)"/>
  </g>
  <g transform="translate(5.8905 26.438)">
   <use width="100%" height="100%" xlink:href="#led-body"/>
  </g>
  <rect x="33.9" y="42.76" width="12.84" height=".16" fill="#fff"/>
  <rect x="49.48" y="42.76" width="14.37" height=".16" fill="#fff"/>
  <g transform="matrix(1.3916 0 0 1.3916 -22.734 -.86292)">
   <path d="m34.214 12.011c-1.6649-0.13263-3.0639 1.8355-2.3756 3.3618 0.66469 1.6533 3.1698 2.104 4.3638 0.77797 1.1538-1.1305 1.5996-2.8648 3.004-3.759 1.4367-0.9801 3.7517-0.0547 4.0238 1.6889 0.27358 1.6696-1.5248 3.296-3.1572 2.801-1.2034-0.27199-2.0693-1.2987-2.5619-2.3779-0.6046-1.0328-1.395-2.1333-2.628-2.4237-0.2191-0.0497-0.44434-0.0693-0.66887-0.0691z" fill="none" stroke="#fff" stroke-width="1.03"/>
   <path d="m39.678 14.375h1.7514m-0.89321-0.8757v1.7514m-7.3033-0.8757h2.1017" fill="none" stroke="#fff" stroke-width=".56"/>
   <text x="31" y="20.200001" fill="#ffffff" font-size="2.8px" font-weight="bold" style="line-height:1.25">ARDUINO</text>
   <rect x="45.19" y="11.83" width="11" height="5.45" rx="1" ry="1" fill="none" stroke="#fff" stroke-dasharray="0.1, 0.1" stroke-width=".1"/>
  </g>
  <g transform="translate(5.8905 26.438)">
   <use width="100%" height="100%" xlink:href="#led-body"/>
  </g>
  <g transform="translate(5.9168 33.881)" font-family="monospace" font-size="2px">
   <use width="100%" height="100%" xlink:href="#led-body"/>
  </g>
  <g transform="translate(5.9168 30.142)" font-family="monospace" font-size="2px">
   <use width="100%" height="100%" xlink:href="#led-body"/>
  </g>
  <rect x="2.5958" y="3.1892" width="4.5393" height="4.9433" fill="#333" style="paint-order:stroke markers fill"/>
  <circle cx="4.9918" cy="5.5824" r="1" fill="#800000" style="paint-order:stroke markers fill"/>
  <g transform="matrix(1.3916 0 0 1.3916 -22.734 -.86292)" font-family="monospace" font-size="2px">
   <text x="46.768013" y="15.900737" fill="#e6e6e6" font-family="sans-serif" font-size="4.4178px" stroke-width=".11044" style="line-height:1.25" xml:space="preserve"><tspan x="46.768013" y="15.900737" fill="#e6e6e6" stroke-width=".11044">uno</tspan></text>
  </g>
 </g>
</svg>
